<?xml version="1.0" encoding="UTF-8"?>
<svg width="512pt" height="512pt" version="1.1" viewBox="0 0 512 512" xmlns="http://www.w3.org/2000/svg">
 <path d="m205.3 360.88c145.14 41.398 211.44-109.02 274.84-253.02 4.8594-11.039 9.7188-22.059 14.5-32.801-157.62-14.422-366.34 57.859-314.26 259 64.398-102.74 130.76-140.84 198.34-182.62-93.242 68.922-187.96 156.1-222.42 269.1-1.3789 4.5391 2.8398 19.379 7.3789 20.781 4.5391 1.3789 9.3398-1.1797 10.738-5.7188 8.0781-26.539 18.379-51.461 30.879-74.723zm-41.898-34.578c-63.039-55.301-105.5-163.44-146.06-254.28 72.719-6.6602 160.98 5.5781 227.16 43.621-37.34 25.102-65.781 58.82-79 101.9-1.4609 4.7812-32.539-48.879-55.879-61.16 23.961 36.66 35.641 55.301 49.262 92.477-3.1602 25.84-1 52.059 4.5195 77.441z" fill-rule="evenodd"/>
</svg>
